#!OML:ASF E:\id_vita\Project 1\Capture day 1\Session 1\Male1.ASF
:FULLY-SPECIFIED
:DEGREES
1756
root 18.9283 2.82778 4.79038 166.012 63.6207 201.618
lowerback 45.0712 6.60906 12.261
upperback 13.4492 17.6801 -1.28995
thorax -1.83942 11.1208 -13.7306
lowerneck 4.41896 19.811 23.0542
upperneck 3.8378 28.3741 -15.4708
head 5.84731 14.2303 -5.74375
rclavicle -1.78906e-014 7.4743e-014
rhumerus -8.17491 53.07 -35.33
rradius 53.4712
rwrist -1.86564
rhand -12.7413 -318.97
rfingers 7.12502
rthumb 13.3426 11.4767
lclavicle -1.78906e-014 7.4743e-014
lhumerus -17.2834 10.5487 72.0267
lradius 39.6396
lwrist -19.4139
lhand -40.3987 85.6258
lfingers 7.12502
lthumb -13.3521 -115.178
rfemur -93.3348 -27.1646 17.6494
rtibia 95.2808
rfoot 4.62677 22.465
rtoes -25.9815
lfemur -80.0213 0.826211 -45.2106
ltibia 66.0464
lfoot 33.4801 3.24071
ltoes 35.0487
1757
root 18.9275 2.82964 4.79164 166.167 63.4607 201.864
lowerback 45.0642 6.51868 12.3391
upperback 13.4672 17.6119 -1.23447
thorax -1.83256 11.0901 -13.6841
lowerneck 4.41865 19.827 23.0552
upperneck 3.79254 28.3909 -15.5076
head 5.84232 14.2376 -5.75214
rclavicle -4.37326e-014 3.73715e-014
rhumerus -8.11264 53.15 -35.2603
rradius 53.5083
rwrist -1.95258
rhand -12.7533 -318.973
rfingers 7.12502
rthumb 13.331 11.4738
lclavicle -4.37326e-014 3.73715e-014
lhumerus -17.3252 10.5352 72.0065
lradius 39.6373
lwrist -19.4029
lhand -40.3872 85.6057
lfingers 7.12502
lthumb -13.341 -115.159
rfemur -93.2051 -27.3571 17.6748
rtibia 95.3759
rfoot 4.50432 22.1707
rtoes -25.9541
lfemur -79.8894 0.75511 -45.191
ltibia 66.0378
lfoot 33.5136 3.14587
ltoes 34.976
1758
root 18.9277 2.83078 4.79263 166.306 63.3521 202.068
lowerback 45.0424 6.45974 12.3944
upperback 13.4876 17.5684 -1.18217
thorax -1.81696 11.0713 -13.6351
lowerneck 4.40687 19.8497 22.9925
upperneck 3.74716 28.4065 -15.4872
head 5.82087 14.2442 -5.73863
rclavicle 6.04305e-014 -8.26944e-014
rhumerus -8.04468 53.235 -35.1683
rradius 53.5494
rwrist -2.06649
rhand -12.6988 -318.83
rfingers 7.12502
rthumb 13.3835 11.6201
lclavicle 6.04305e-014 -8.26944e-014
lhumerus -17.3585 10.5471 71.9965
lradius 39.639
lwrist -19.4243
lhand -40.3538 85.5974
lfingers 7.12502
lthumb -13.3088 -115.152
rfemur -93.0926 -27.4566 17.6676
rtibia 95.4596
rfoot 4.35533 21.9602
rtoes -25.858
lfemur -79.8035 0.714835 -45.1674
ltibia 66.0355
lfoot 33.539 3.08326
ltoes 34.9814
1759
root 18.9283 2.83024 4.79257 166.409 63.3676 202.195
lowerback 45.0283 6.45814 12.4212
upperback 13.5012 17.5793 -1.1455
thorax -1.79896 11.078 -13.6061
lowerneck 4.38464 19.8689 22.8897
upperneck 3.70622 28.4111 -15.4344
head 5.78975 14.2452 -5.71383
rclavicle 7.55382e-014 -4.37326e-014
rhumerus -7.99326 53.2977 -35.0757
rradius 53.5801
rwrist -2.17189
rhand -12.5948 -318.532
rfingers 7.12502
rthumb 13.4838 11.9246
lclavicle 7.55382e-014 -4.37326e-014
lhumerus -17.3773 10.589 72.0091
lradius 39.6347
lwrist -19.4853
lhand -40.3009 85.6237
lfingers 7.12502
lthumb -13.2578 -115.182
rfemur -93.0353 -27.3957 17.6558
rtibia 95.5059
rfoot 4.22937 21.8659
rtoes -25.7334
lfemur -79.8056 0.745095 -45.1241
ltibia 66.0435
lfoot 33.544 3.09243
ltoes 35.0741
1760
root 18.9288 2.82834 4.79159 166.486 63.4902 202.27
lowerback 45.0362 6.49653 12.4345
upperback 13.5045 17.6323 -1.12717
thorax -1.78531 11.1042 -13.6061
lowerneck 4.36833 19.8732 22.8
upperneck 3.663 28.3988 -15.4041
head 5.75955 14.2381 -5.70048
rclavicle -1.13705e-013 1.98785e-014
rhumerus -7.95982 53.325 -35.0033
rradius 53.5868
rwrist -2.23961
rhand -12.4925 -318.199
rfingers 7.12502
rthumb 13.5823 12.2645
lclavicle -1.13705e-013 1.98785e-014
lhumerus -17.3859 10.6579 72.0361
lradius 39.6215
lwrist -19.5679
lhand -40.2434 85.676
lfingers 7.12502
lthumb -13.2024 -115.238
rfemur -93.0286 -27.2095 17.6615
rtibia 95.503
rfoot 4.16473 21.8893
rtoes -25.6606
lfemur -79.8768 0.833582 -45.0539
ltibia 66.0616
lfoot 33.5317 3.16329
ltoes 35.2153
1761
root 18.929 2.82637 4.79063 166.572 63.6329 202.359
lowerback 45.0573 6.5316 12.4544
upperback 13.5049 17.6853 -1.11411
thorax -1.77522 11.1307 -13.6166
lowerneck 4.37217 19.8659 22.7402
upperneck 3.60485 28.3781 -15.4149
head 5.73088 14.2275 -5.70542
rclavicle 3.93594e-014 6.59965e-014
rhumerus -7.91568 53.3254 -34.9469
rradius 53.5664
rwrist -2.26189
rhand -12.4608 -318.048
rfingers 7.12502
rthumb 13.6129 12.417
lclavicle 3.93594e-014 6.59965e-014
lhumerus -17.3944 10.7662 72.0597
lradius 39.6017
lwrist -19.6586
lhand -40.195 85.717
lfingers 7.12502
lthumb -13.1558 -115.282
rfemur -93.0256 -27.0028 17.6889
rtibia 95.4577
rfoot 4.15664 22.0017
rtoes -25.6788
lfemur -79.9567 0.929941 -44.9606
ltibia 66.0879
lfoot 33.5129 3.24384
ltoes 35.3346
1762
root 18.9288 2.82537 4.79054 166.705 63.7092 202.531
lowerback 45.0724 6.52567 12.4979
upperback 13.5159 17.7014 -1.08598
thorax -1.75992 11.1413 -13.6093
lowerneck 4.39658 19.8591 22.7063
upperneck 3.53056 28.3641 -15.4624
head 5.70466 14.2208 -5.72403
rclavicle 4.41302e-014 -1.25632e-013
rhumerus -7.82729 53.3191 -34.8815
rradius 53.5247
rwrist -2.2489
rhand -12.5291 -318.192
rfingers 7.12502
rthumb 13.5471 12.2691
lclavicle 4.41302e-014 -1.25632e-013
lhumerus -17.4129 10.9184 72.0665
lradius 39.5847
lwrist -19.7466
lhand -40.1615 85.7156
lfingers 7.12502
lthumb -13.1234 -115.283
rfemur -92.9766 -26.8793 17.7377
rtibia 95.3951
rfoot 4.17254 22.1398
rtoes -25.7465
lfemur -79.9892 0.988685 -44.8519
ltibia 66.1213
lfoot 33.5041 3.28362
ltoes 35.3867
1763
root 18.9288 2.82572 4.79152 166.878 63.6816 202.781
lowerback 45.0657 6.47134 12.561
upperback 13.5441 17.6693 -1.03517
thorax -1.73409 11.131 -13.5683
lowerneck 4.42781 19.8604 22.692
upperneck 3.45745 28.3653 -15.528
head 5.68605 14.2217 -5.74685
rclavicle -4.92986e-014 -8.74653e-015
rhumerus -7.69363 53.3149 -34.796
rradius 53.4697
rwrist -2.21698
rhand -12.6486 -318.499
rfingers 7.12502
rthumb 13.4319 11.9541
lclavicle -4.92986e-014 -8.74653e-015
lhumerus -17.4442 11.0919 72.0549
lradius 39.5781
lwrist -19.8203
lhand -40.1357 85.6756
lfingers 7.12502
lthumb -13.0986 -115.244
rfemur -92.8755 -26.8864 17.7952
rtibia 95.3497
rfoot 4.17798 22.2346
rtoes -25.8153
lfemur -79.9568 0.9944 -44.7542
ltibia 66.1592
lfoot 33.5206 3.26896
ltoes 35.4008
1764
root 18.9289 2.82678 4.79283 167.036 63.5981 203.02
lowerback 45.0393 6.40152 12.617
upperback 13.5815 17.6146 -0.976755
thorax -1.70261 11.1103 -13.5062
lowerneck 4.44871 19.867 22.698
upperneck 3.40612 28.3761 -15.5983
head 5.68106 14.2267 -5.76863
rclavicle -1.31198e-014 7.55382e-014
rhumerus -7.54454 53.3141 -34.6967
rradius 53.4144
rwrist -2.18604
rhand -12.7455 -318.768
rfingers 7.12502
rthumb 13.3385 11.6794
lclavicle -1.31198e-014 7.55382e-014
lhumerus -17.4785 11.2539 72.0335
lradius 39.5763
lwrist -19.8769
lhand -40.1079 85.6152
lfingers 7.12502
lthumb -13.0718 -115.186
rfemur -92.7676 -26.9729 17.844
rtibia 95.3412
rfoot 4.15313 22.2487
rtoes -25.8707
lfemur -79.8972 0.975542 -44.6957
ltibia 66.197
lfoot 33.5563 3.22667
ltoes 35.4365
1765
root 18.9291 2.82737 4.79359 167.117 63.5595 203.141
lowerback 45.0095 6.36824 12.6307
upperback 13.6117 17.5814 -0.936748
thorax -1.67754 11.0975 -13.4518
lowerneck 4.45497 19.8675 22.743
upperneck 3.38166 28.3826 -15.6848
head 5.69391 14.2289 -5.79615
rclavicle -9.26337e-014 -2.22639e-014
rhumerus -7.41248 53.318 -34.5971
rradius 53.3739
rwrist -2.17149
rhand -12.7751 -318.873
rfingers 7.12502
rthumb 13.31 11.5724
lclavicle -9.26337e-014 -2.22639e-014
lhumerus -17.507 11.3736 72.0088
lradius 39.5725
lwrist -19.9109
lhand -40.0806 85.539
lfingers 7.12502
lthumb -13.0455 -115.111
rfemur -92.7157 -27.0264 17.8792
rtibia 95.3625
rfoot 4.10008 22.1915
rtoes -25.9095
lfemur -79.8777 0.984657 -44.6819
ltibia 66.2298
lfoot 33.5877 3.20377
ltoes 35.5167
1766
root 18.9293 2.82696 4.79388 167.122 63.6171 203.131
lowerback 44.9911 6.39194 12.5953
upperback 13.6238 17.5909 -0.926589
thorax -1.66803 11.1009 -13.4236
lowerneck 4.45587 19.8546 22.8335
upperneck 3.37249 28.3759 -15.7948
head 5.72008 14.2247 -5.83535
rclavicle -8.34896e-015 -2.70347e-014
rhumerus -7.31545 53.3221 -34.5163
rradius 53.3587
rwrist -2.17199
rhand -12.7482 -318.842
rfingers 7.12502
rthumb 13.3359 11.6048
lclavicle -8.34896e-015 -2.70347e-014
lhumerus -17.5323 11.426 71.9801
lradius 39.5708
lwrist -19.9043
lhand -40.0703 85.4529
lfingers 7.12502
lthumb -13.0356 -115.026
rfemur -92.7397 -26.9805 17.9106
rtibia 95.3901
rfoot 4.04478 22.1048
rtoes -25.9347
lfemur -79.9268 1.04173 -44.6835
ltibia 66.2549
lfoot 33.5943 3.22564
ltoes 35.6047
1767
root 18.9297 2.82585 4.79431 167.122 63.7408 203.089
lowerback 44.9888 6.44577 12.5486
upperback 13.6187 17.6294 -0.935079
thorax -1.67183 11.1155 -13.4227
lowerneck 4.46106 19.8307 22.9503
upperneck 3.36401 28.358 -15.9187
head 5.74962 14.2153 -5.88339
rclavicle 1.18873e-013 -1.28017e-013
rhumerus -7.25059 53.3267 -34.4599
rradius 53.3726
rwrist -2.18379
rhand -12.7138 -318.816
rfingers 7.12502
rthumb 13.369 11.6334
lclavicle 1.18873e-013 -1.28017e-013
lhumerus -17.5593 11.4146 71.9486
lradius 39.5756
lwrist -19.8546
lhand -40.0899 85.3719
lfingers 7.12502
lthumb -13.0545 -114.943
rfemur -92.8022 -26.8556 17.9577
rtibia 95.4016
rfoot 4.01313 22.0346
rtoes -25.9594
lfemur -80.0161 1.11978 -44.6514
ltibia 66.2727
lfoot 33.5679 3.2831
ltoes 35.6626
1768
root 18.9303 2.82451 4.795 167.168 63.8659 203.102
lowerback 44.9976 6.48891 12.53
upperback 13.6062 17.6682 -0.945347
thorax -1.6795 11.1305 -13.4388
lowerneck 4.47666 19.8029 23.0779
upperneck 3.34723 28.3371 -16.049
head 5.77692 14.2051 -5.93638
rclavicle -1.43125e-014 9.78021e-014
rhumerus -7.20147 53.3332 -34.4198
rradius 53.4064
rwrist -2.20873
rhand -12.6928 -318.848
rfingers 7.12502
rthumb 13.3894 11.6024
lclavicle -1.43125e-014 9.78021e-014
lhumerus -17.5861 11.3797 71.9194
lradius 39.5808
lwrist -19.7935
lhand -40.1292 85.3054
lfingers 7.12502
lthumb -13.0923 -114.874
rfemur -92.8567 -26.7226 18.0263
rtibia 95.3926
rfoot 4.00494 21.9983
rtoes -25.9769
lfemur -80.0991 1.18103 -44.5728
ltibia 66.2852
lfoot 33.5219 3.35241
ltoes 35.6849
1769
root 18.931 2.82331 4.79548 167.252 63.9399 203.181
lowerback 45.0099 6.49579 12.5525
upperback 13.5964 17.6841 -0.949544
thorax -1.68273 11.1371 -13.4602
lowerneck 4.50345 19.7762 23.209
upperneck 3.32152 28.3191 -16.1786
head 5.80055 14.1971 -5.99065
rclavicle 3.4191e-014 8.26944e-014
rhumerus -7.16216 53.3316 -34.3942
rradius 53.442
rwrist -2.24286
rhand -12.6724 -318.886
rfingers 7.12502
rthumb 13.409 11.5651
lclavicle 3.4191e-014 8.26944e-014
lhumerus -17.603 11.3694 71.8987
lradius 39.5709
lwrist -19.7643
lhand -40.1632 85.2546
lfingers 7.12502
lthumb -13.1251 -114.822
rfemur -92.8819 -26.6486 18.1014
rtibia 95.3733
rfoot 4.01083 21.9858
rtoes -25.9739
lfemur -80.1443 1.2029 -44.4799
ltibia 66.2952
lfoot 33.4818 3.4005
ltoes 35.6568
1770
root 18.9318 2.82222 4.79504 167.334 63.9618 203.273
lowerback 45.0208 6.47191 12.6028
upperback 13.5923 17.6774 -0.950065
thorax -1.67935 11.1358 -13.4826
lowerneck 4.53364 19.7542 23.319
upperneck 3.29229 28.3051 -16.2886
head 5.81722 14.1913 -6.03757
rclavicle -1.0297e-013 -2.54444e-014
rhumerus -7.13931 53.3158 -34.3839
rradius 53.4666
rwrist -2.28346
rhand -12.6488 -318.886
rfingers 7.12502
rthumb 13.4317 11.5667
lclavicle -1.0297e-013 -2.54444e-014
lhumerus -17.6004 11.4068 71.8938
lradius 39.531
lwrist -19.789
lhand -40.1798 85.2125
lfingers 7.12502
lthumb -13.1411 -114.778
rfemur -92.8902 -26.6419 18.1655
rtibia 95.3468
rfoot 4.03172 22.0031
rtoes -25.9689
lfemur -80.1587 1.19616 -44.4148
ltibia 66.3056
lfoot 33.4623 3.41775
ltoes 35.6038
